# xmcd
#
# Track frame offsets:
# 150
# 20288
# 37593
# 52913
# 70306
# 84766
# 116000
# 142387
# 160125
# 179863
# 186169
# 200470
# 225365
# 240082
# 257378
# 275317
# 293452
#
# Disc length: 4007 seconds
#
#
# Revision: 0
# Processed by: cddbd v1.5.1PL2 Copyright (c) Steve Scherf et al.
# Submitted via: FreeRIP 2.942 
#
DISCID=d80fa511
DTITLE=La Triple Nelson - Tres
DYEAR=2006
DGENRE=Rock
TTITLE0=Despertar lejos
TTITLE1=Tus pies
TTITLE2=Mi razon
TTITLE3=Hacia donde mirar
TTITLE4=Tiempo
TTITLE5=Nada mas que hablar
TTITLE6=Extraño
TTITLE7=Segui tus huellas
TTITLE8=Subiendo
TTITLE9=Tan abajo
TTITLE10=Este lugar
TTITLE11=Nunca estoy solo
TTITLE12=La yara
TTITLE13=Purple haze
TTITLE14=Perro solo
TTITLE15=Mejor no hablar
TTITLE16=Tan abajo
EXTD=
EXTT0=
EXTT1=
EXTT2=
EXTT3=
EXTT4=
EXTT5=
EXTT6=
EXTT7=
EXTT8=
EXTT9=
EXTT10=
EXTT11=
EXTT12=
EXTT13=
EXTT14=
EXTT15=
EXTT16=
PLAYORDER=
